<svg width="14" height="8" viewBox="0 0 14 8" fill="none" xmlns="http://www.w3.org/2000/svg">
<path d="M0.265673 0.265625C0.442756 0.0885417 0.652424 0 0.894674 0C1.13692 0 1.34635 0.0885417 1.52297 0.265625L6.71151 5.45417L11.9178 0.247917C12.083 0.0826388 12.2896 0 12.5375 0C12.7855 0 12.998 0.0885417 13.175 0.265625C13.3521 0.442708 13.4407 0.652375 13.4407 0.894625C13.4407 1.13687 13.3521 1.34631 13.175 1.52292L7.20734 7.47292C7.13651 7.54375 7.05977 7.59404 6.97713 7.62379C6.89449 7.65354 6.80595 7.66818 6.71151 7.66771C6.61706 7.66771 6.52852 7.65283 6.44588 7.62308C6.36324 7.59333 6.28651 7.54328 6.21567 7.47292L0.247966 1.50521C0.0826882 1.33993 4.84848e-05 1.13617 4.84848e-05 0.893916C4.84848e-05 0.651666 0.0885905 0.442236 0.265673 0.265625Z" fill="#9C9C9C"/>
</svg>
